<?xml version="1.0" encoding="utf-8"?>
<!-- Generator: Adobe Illustrator 19.0.0, SVG Export Plug-In . SVG Version: 6.00 Build 0)  -->
<svg version="1.1" id="Layer_1" xmlns="http://www.w3.org/2000/svg" xmlns:xlink="http://www.w3.org/1999/xlink" x="0px" y="0px"
	 viewBox="0 0 492 159.9" style="enable-background:new 0 0 492 159.9;" xml:space="preserve">
<style type="text/css">
	.st0{fill:#ffffff;}
</style>
<path id="XMLID_2_" class="st0" d="M380,120L380,120c-4.4,0-8-3.6-8-8V8c0-4.4,3.6-8,8-8l0,0c4.4,0,8,3.6,8,8v104
	C388,116.4,384.4,120,380,120z M132,120L132,120c-4.4,0-8-3.6-8-8V32c0-4.4,3.6-8,8-8l0,0c4.4,0,8,3.6,8,8v80
	C140,116.4,136.4,120,132,120z M108.9,37.2l-41,78c-3.2,6-11.6,6.5-15.4,0.8l-37-55c-3.4-5-0.9-11.9,4.9-13.6l78-23
	C106.1,22.1,112.6,30.2,108.9,37.2z M108.9,37.2l-41,78c-3.2,6-11.6,6.5-15.4,0.8l-37-55c-3.4-5-0.9-11.9,4.9-13.6l78-23
	C106.1,22.1,112.6,30.2,108.9,37.2z M28,14c0,7.7-6.3,14-14,14S0,21.7,0,14S6.3,0,14,0S28,6.3,28,14z M248,70v42c0,4.4-3.6,8-8,8
	s-8-3.6-8-8V70c0-16.6-13.4-30-30-30s-30,13.4-30,30v42c0,4.4-3.6,8-8,8s-8-3.6-8-8V70c0-14,6.2-26.6,16-35c8.1-6.9,18.5-11,30-11
	s21.9,4.1,30,11C241.8,43.4,248,56,248,70z M422.5,80H483c5,0,9-4.1,9-9c0-23.2-15.6-47-44-47c-25,0-44,21.2-44,48
	c0,27.3,19.6,48,46,48l0,0c13.8,0,25-4.4,34.9-13.6c0.1-0.1,0.3-0.2,0.4-0.4c1.6-1.4,2.7-3.7,2.7-6c0-1.6-0.4-2.9-1.2-4.1
	c-0.1-0.1-0.1-0.2-0.2-0.3c-1.4-2.1-3.9-3.5-6.6-3.5c-2.4,0-4.5,1.3-6,2.7l0,0c-7.3,6.7-15,9.3-24,9.3c-13.3,0-25.8-8.6-29.4-21.5
	C420.2,81.3,421.2,80,422.5,80z M420.3,63.7C422.3,50.3,434,40,448,40s25.7,10.3,27.7,23.7c0.2,1.2-0.8,2.3-2,2.3h-51.5
	C421,66,420.1,64.9,420.3,63.7z M295,141C295,141,295.1,141,295,141L295,141z M356,72c0-26.5-21.5-48-48-48s-48,21.5-48,48
	s21.5,48,48,48c12.8,0,24.4-4.9,33-13v5c0,17.6-15.5,32-33,32c-4.6,0-8.8-1.8-13-3c-0.7-0.2-1.5-0.3-2.3-0.4
	c-4.4-0.3-8.5,2.9-8.7,7.4c-0.2,3.5,1.9,6.7,5,8c5.8,2.5,12.2,4,19,4c13.2,0,25.3-5.3,34-14s14-20.8,14-34V72.2
	C356,72.2,356,72.1,356,72z M308,104c-17.7,0-32-14.3-32-32s14.3-32,32-32s32,14.3,32,32S325.7,104,308,104z"/>
</svg>
