<svg xmlns="http://www.w3.org/2000/svg" width="77" height="34" viewBox="0 0 77 34"><g fill="none" fill-rule="evenodd"><path fill="none" d="M0 0h77v34H0V0z"/><path fill="#8F9CB3" d="M9.946 14.83v2.64h6.372c-.315 3.7-3.425 5.28-6.36 5.28-3.758 0-7.035-2.927-7.035-7.03 0-3.995 3.124-7.072 7.042-7.072 3.023 0 4.804 1.908 4.804 1.908l1.866-1.915S14.24 6 9.87 6C4.305 6 0 10.65 0 15.674c0 4.922 4.05 9.722 10.012 9.722 5.243 0 9.082-3.557 9.082-8.817 0-1.11-.163-1.752-.163-1.752H9.947zm16.345-1.913c-3.686 0-6.328 2.854-6.328 6.183 0 3.378 2.563 6.285 6.372 6.285 3.45 0 6.274-2.61 6.274-6.213 0-4.13-3.286-6.255-6.317-6.255zm.038 2.45c1.813 0 3.53 1.45 3.53 3.79 0 2.288-1.71 3.78-3.54 3.78-2.008 0-3.593-1.593-3.593-3.8 0-2.16 1.565-3.77 3.603-3.77zm13.727-2.45c-3.686 0-6.328 2.854-6.328 6.183 0 3.378 2.562 6.285 6.372 6.285 3.447 0 6.273-2.61 6.273-6.213 0-4.13-3.287-6.255-6.318-6.255zm.037 2.45c1.813 0 3.53 1.45 3.53 3.79 0 2.288-1.71 3.78-3.538 3.78-2.01 0-3.595-1.593-3.595-3.8 0-2.16 1.565-3.77 3.602-3.77zm13.464-2.444c-3.384 0-6.044 2.935-6.044 6.23 0 3.752 3.084 6.24 5.986 6.24 1.794 0 2.748-.705 3.453-1.515v1.23c0 2.15-1.318 3.438-3.31 3.438-1.922 0-2.886-1.416-3.22-2.22L48 27.33c.857 1.796 2.585 3.67 5.66 3.67 3.366 0 5.93-2.1 5.93-6.5V13.298h-2.64v1.056c-.81-.866-1.92-1.43-3.394-1.43zm.245 2.444c1.66 0 3.364 1.403 3.364 3.8 0 2.434-1.7 3.776-3.4 3.776-1.804 0-3.482-1.45-3.482-3.754 0-2.395 1.743-3.823 3.52-3.823zm17.526-2.458c-3.192 0-5.872 2.513-5.872 6.224 0 3.927 2.988 6.256 6.18 6.256 2.663 0 4.297-1.443 5.273-2.736L74.73 21.22c-.564.868-1.508 1.716-3.084 1.716-1.77 0-2.583-.96-3.087-1.89L77 17.58l-.438-1.016c-.816-1.99-2.718-3.653-5.235-3.653zm.11 2.396c1.15 0 1.978.606 2.33 1.332L68.13 18.97c-.244-1.805 1.484-3.664 3.306-3.664zM61.43 25.02h2.773V6.645H61.43V25.02z"/></g></svg>